<svg xmlns="http://www.w3.org/2000/svg" data-name="Layer 1" viewBox="0 0 64 64" id="contact-book"><path fill="#bdb2ff" d="M63 54H52V10H12l51-9v53z"></path><path d="M4 48a3 3 0 0 0 0 6h3v8a1 1 0 0 0 1 1h44a1 1 0 0 0 1-1V10a1 1 0 0 0-1-1H8a1 1 0 0 0-1 1v8H4a3 3 0 0 0 0 6h3v9H4a3 3 0 0 0 0 6h3v9Zm-1 3a1 1 0 0 1 1-1h6a1 1 0 0 1 0 2H4a1 1 0 0 1-1-1Zm6 3h1a3 3 0 0 0 1-.18V61H9Zm42 7H13V11h38ZM9 11h2v7.18a3 3 0 0 0-1-.18H9ZM3 21a1 1 0 0 1 1-1h6a1 1 0 0 1 0 2H4a1 1 0 0 1-1-1Zm6 3h1a3 3 0 0 0 1-.18v9.36a3 3 0 0 0-1-.18H9ZM3 36a1 1 0 0 1 1-1h6a1 1 0 0 1 0 2H4a1 1 0 0 1-1-1Zm6 3h1a3 3 0 0 0 1-.18v9.36a3 3 0 0 0-1-.18H9Z"></path><path d="M18 51h28a1 1 0 0 0 0-2H18a1 1 0 0 0 0 2zm28 4H18a1 1 0 0 0 0 2h28a1 1 0 0 0 0-2z"></path><path fill="#bdb2ff" d="M36 23a4 4 0 1 1-.54-2 4 4 0 0 1 .54 2zm6 13H22v-2a6 6 0 0 1 6-6l4 2 4-2a6 6 0 0 1 6 6z"></path></svg>