<svg xmlns="http://www.w3.org/2000/svg" width="512" height="512" id="edit"><path d="M416 56H96c-22.056 0-40 17.944-40 40v320c0 22.056 17.944 40 40 40h320c22.056 0 40-17.944 40-40V96c0-22.056-17.944-40-40-40Zm24 360c0 13.232-10.768 24-24 24H96c-13.232 0-24-10.768-24-24V96c0-13.232 10.768-24 24-24h320c13.232 0 24 10.768 24 24v320Z"></path><path d="M399.032 186.344c-3-3-8.312-3-11.312 0L251.952 322.112a7.989 7.989 0 0 0-1.936 3.128l-11.312 33.936a7.988 7.988 0 0 0 1.936 8.184 8.009 8.009 0 0 0 5.656 2.344c.848 0 1.696-.136 2.528-.416l33.936-11.312a8.086 8.086 0 0 0 3.128-1.928L421.656 220.28a7.979 7.979 0 0 0 2.344-5.656c0-2.12-.84-4.16-2.344-5.656l-22.624-22.624zM275.912 343.4l-16.968 5.656 5.656-16.968 128.776-128.776 11.312 11.312L275.912 343.4zM128 136h256c4.424 0 8-3.584 8-8s-3.576-8-8-8H128c-4.416 0-8 3.584-8 8s3.584 8 8 8zm0 48h224c4.424 0 8-3.584 8-8s-3.576-8-8-8H128c-4.416 0-8 3.584-8 8s3.584 8 8 8zm0 48h176c4.424 0 8-3.584 8-8s-3.576-8-8-8H128c-4.416 0-8 3.584-8 8s3.584 8 8 8zm0 48h128c4.416 0 8-3.576 8-8 0-4.424-3.584-8-8-8H128c-4.416 0-8 3.576-8 8 0 4.424 3.584 8 8 8zm96 32h-96c-4.416 0-8 3.576-8 8 0 4.424 3.584 8 8 8h96c4.416 0 8-3.576 8-8 0-4.424-3.584-8-8-8zm-16 48h-80c-4.416 0-8 3.576-8 8 0 4.424 3.584 8 8 8h80c4.416 0 8-3.576 8-8 0-4.424-3.584-8-8-8z"></path></svg>