<svg xmlns="http://www.w3.org/2000/svg" viewBox="0 0 50 50" id="portfolio"><path d="M14 1H1v48h48V1H14zm0 46H3V3h11v44zm2-37.069A8.008 8.008 0 0 0 22.931 3H40.07A8.006 8.006 0 0 0 47 9.931V40.07a8.007 8.007 0 0 0-6.931 6.931H22.931A8.007 8.007 0 0 0 16 40.07V9.931zm0 32.159A6.007 6.007 0 0 1 20.91 47H16v-4.91zM42.09 47A6.007 6.007 0 0 1 47 42.09V47h-4.91zM47 7.91A6.008 6.008 0 0 1 42.09 3H47v4.91zM20.91 3A6.008 6.008 0 0 1 16 7.91V3h4.91z"></path><path d="M5 42h7v2H5zM5 38h7v2H5zM5 34h7v2H5zM42 18h-6v-4h-8v4h-6v14h20V18zm-12-2h4v2h-4v-2zm10 14H24V20h16v10z"></path><path d="M31 23h2v2h-2z"></path></svg>